<?xml version="1.0" encoding="UTF-8" standalone="no"?>
<!DOCTYPE svg PUBLIC "-//W3C//DTD SVG 20010904//EN"
              "http://www.w3.org/TR/2001/REC-SVG-20010904/DTD/svg10.dtd">

<svg xmlns="http://www.w3.org/2000/svg"
     width="5in" height="5in"
     viewBox="0 0 360 360">
  <path id="raffy-head-body"
        fill="white" stroke="black" stroke-width="1"
        d="M 82.49,286.00
           C 82.49,286.00 91.62,254.00 91.62,254.00
             91.62,254.00 97.64,239.00 97.64,239.00
             97.64,239.00 113.02,190.00 113.02,190.00
             117.62,175.17 123.80,160.34 126.47,145.00
             128.30,134.50 111.70,126.89 105.09,120.70
             99.56,115.52 99.15,110.99 97.77,104.00
             97.14,100.58 94.74,91.42 97.77,88.90
             99.85,87.28 105.50,88.31 108.00,88.90
             118.41,90.87 124.41,93.34 131.99,101.00
             133.96,103.00 138.70,109.48 141.30,109.44
             147.69,109.33 157.97,96.31 160.83,91.00
             162.79,87.35 164.59,81.59 169.09,80.47
             172.61,79.59 175.83,81.87 181.00,81.09
             188.59,79.94 193.55,72.81 198.96,75.23
             201.42,76.33 204.19,79.98 206.09,82.00
             206.09,82.00 220.01,95.17 220.01,95.17
             222.21,97.18 225.25,100.57 228.00,101.32
             230.73,102.52 235.01,101.29 238.00,101.32
             243.39,100.72 252.96,100.57 258.00,102.00
             254.46,112.62 248.49,127.90 237.00,132.00
             246.18,144.84 241.76,146.61 259.09,165.00
             259.09,165.00 279.00,182.47 279.00,182.47
             283.35,185.85 286.83,186.94 290.12,192.00
             292.99,196.40 293.52,203.78 294.27,209.00
             294.61,211.36 295.77,217.98 295.40,219.98
             294.54,224.62 290.70,224.43 287.42,226.49
             285.20,227.88 284.90,228.67 281.99,229.86
             269.94,234.75 256.80,230.77 254.00,217.00
             254.00,217.00 243.00,216.09 243.00,216.09
             230.04,215.18 217.44,214.14 205.00,210.00
             196.45,231.54 193.00,253.94 193.00,277.00
             193.00,277.00 213.00,279.99 213.00,279.99
             226.27,280.29 229.34,274.64 241.00,270.55
             246.23,268.71 248.02,269.31 253.00,268.83
             262.52,267.91 277.88,267.23 286.00,273.00
             277.30,275.31 261.21,277.61 254.00,282.65
             244.85,289.04 240.85,299.25 228.00,304.37
             218.75,308.06 203.25,307.00 193.00,307.00
             193.00,307.00 194.44,337.00 194.44,337.00
             194.44,337.00 199.00,360.00 199.00,360.00
             199.00,360.00 186.00,360.00 186.00,360.00
             183.06,337.83 180.72,336.43 181.00,312.00
             181.14,300.41 182.18,299.02 191.00,299.00
             202.38,298.98 215.61,299.21 226.00,294.00
             211.16,295.96 210.17,296.17 195.00,296.00
             191.91,295.96 185.84,295.74 183.60,293.42
             181.67,291.42 182.01,287.60 182.00,285.00
             182.00,285.00 184.35,249.58 184.35,249.58
             184.35,249.58 186.15,231.72 186.15,231.72
             186.15,231.72 179.00,194.00 179.00,194.00
             184.92,194.29 190.20,196.43 196.00,197.60
             196.00,197.60 218.00,201.20 218.00,201.20
             226.64,202.91 239.50,205.90 248.00,206.00
             251.29,206.04 255.94,205.46 258.61,207.60
             263.28,211.33 265.42,222.82 277.00,218.00
             264.54,215.07 264.95,210.08 256.00,204.10
             256.00,204.10 241.00,195.91 241.00,195.91
             241.00,195.91 224.00,184.86 224.00,184.86
             218.41,181.57 206.48,173.28 203.31,167.83
             201.62,164.92 201.08,158.49 200.58,155.00
             200.58,155.00 196.92,126.00 196.92,126.00
             196.41,122.89 195.76,116.54 194.57,114.00
             192.13,108.80 184.64,104.37 180.00,101.10
             176.22,98.43 173.26,95.25 170.00,92.00
             165.56,102.65 160.66,108.20 152.00,115.58
             149.38,117.81 145.32,121.82 142.00,122.53
             137.00,123.59 133.56,118.51 130.28,115.51
             120.71,106.76 118.80,102.39 106.00,98.00
             108.04,120.44 138.14,121.03 137.98,142.00
             137.93,148.42 134.53,159.41 132.87,166.00
             132.87,166.00 116.05,220.00 116.05,220.00
             116.05,220.00 86.28,311.00 86.28,311.00
             86.28,311.00 73.00,360.00 73.00,360.00
             73.00,360.00 61.00,360.00 61.00,360.00
             64.52,335.02 74.58,309.82 82.49,286.00 Z
           M 234.00,119.00
           C 241.67,117.89 242.65,115.87 246.00,109.00
             238.07,109.47 236.99,112.12 234.00,119.00 Z
           M 249.00,188.00
           C 249.92,193.40 251.87,194.02 257.00,195.00
             256.08,189.46 254.40,188.63 249.00,188.00 Z" />
  <path id="raffy-eye"
        fill="white" stroke="black" stroke-width="1"
        d="M 166.00,128.28
           C 189.81,129.08 194.88,162.20 174.00,172.08
             170.42,173.77 166.91,174.13 163.00,173.96
             145.67,173.20 136.11,153.68 144.53,139.00
             147.83,133.26 152.84,130.37 159.00,128.28
             161.70,128.09 163.23,127.92 166.00,128.28 Z
           M 162.00,136.91
           C 140.91,140.21 153.02,173.68 171.00,163.86
             172.78,162.89 174.32,161.55 175.57,159.96
             177.77,157.17 178.31,154.36 179.00,151.00
             168.89,152.55 164.27,146.49 171.00,138.00
             167.79,137.10 165.39,136.38 162.00,136.91 Z" />
  <path id="raffy-right-ear"
        fill="white" stroke="black" stroke-width="1"
        d="M 205.02,47.43
           C 197.63,47.25 198.21,33.24 207.00,31.00
             216.75,33.24 212.93,47.63 205.02,47.43 Z" />
  <path id="raffy-left-ear"
        fill="white" stroke="black" stroke-width="1"
        d="M 147.00,53.64
           C 138.86,52.31 136.50,42.62 145.04,37.75
             157.56,35.37 158.42,55.50 147.00,53.64 Z" />
</svg>
